<?xml version="1.0" encoding="UTF-8" standalone="no"?>
<!DOCTYPE svg PUBLIC "-//W3C//DTD SVG 1.1//EN"
 "http://www.w3.org/Graphics/SVG/1.1/DTD/svg11.dtd">
<!-- Generated by graphviz version 2.43.0 (0)
 -->
<!-- Title: %3 Pages: 1 -->
<svg width="293pt" height="98pt"
 viewBox="0.00 0.00 292.60 98.00" xmlns="http://www.w3.org/2000/svg" xmlns:xlink="http://www.w3.org/1999/xlink">
<g id="graph0" class="graph" transform="scale(1 1) rotate(0) translate(4 94)">
<title>%3</title>
<polygon fill="white" stroke="transparent" points="-4,4 -4,-94 288.6,-94 288.6,4 -4,4"/>
<!-- ini -->
<g id="node1" class="node">
<title>ini</title>
<ellipse fill="black" stroke="black" cx="1.8" cy="-39" rx="1.8" ry="1.8"/>
</g>
<!-- A -->
<g id="node2" class="node">
<title>A</title>
<ellipse fill="none" stroke="black" cx="67.6" cy="-39" rx="27" ry="18"/>
<text text-anchor="middle" x="67.6" y="-35.3" font-family="Times,serif" font-size="14.00">A</text>
</g>
<!-- ini&#45;&gt;A -->
<g id="edge1" class="edge">
<title>ini&#45;&gt;A</title>
<path fill="none" stroke="black" d="M3.91,-39C7.37,-39 18.49,-39 30.42,-39"/>
<polygon fill="black" stroke="black" points="30.48,-42.5 40.48,-39 30.48,-35.5 30.48,-42.5"/>
</g>
<!-- A&#45;&gt;A -->
<g id="edge3" class="edge">
<title>A&#45;&gt;A</title>
<path fill="none" stroke="black" d="M59.74,-56.41C58.28,-66.09 60.9,-75 67.6,-75 71.79,-75 74.38,-71.52 75.38,-66.54"/>
<polygon fill="black" stroke="black" points="78.88,-66.44 75.46,-56.41 71.88,-66.38 78.88,-66.44"/>
<text text-anchor="middle" x="67.6" y="-78.8" font-family="Times,serif" font-size="14.00">1</text>
</g>
<!-- B -->
<g id="node3" class="node">
<title>B</title>
<ellipse fill="none" stroke="black" cx="167.6" cy="-57" rx="27" ry="18"/>
<text text-anchor="middle" x="167.6" y="-53.3" font-family="Times,serif" font-size="14.00">B</text>
</g>
<!-- A&#45;&gt;B -->
<g id="edge2" class="edge">
<title>A&#45;&gt;B</title>
<path fill="none" stroke="black" d="M90.6,-48.52C97.51,-51.1 105.26,-53.57 112.6,-55 118.24,-56.1 124.27,-56.79 130.19,-57.2"/>
<polygon fill="black" stroke="black" points="130.45,-60.72 140.59,-57.67 130.76,-53.72 130.45,-60.72"/>
<text text-anchor="middle" x="117.6" y="-59.8" font-family="Times,serif" font-size="14.00">0</text>
</g>
<!-- B&#45;&gt;A -->
<g id="edge5" class="edge">
<title>B&#45;&gt;A</title>
<path fill="none" stroke="black" d="M146.69,-45.19C139.38,-41.48 130.86,-37.87 122.6,-36 116.67,-34.66 110.3,-34.19 104.07,-34.23"/>
<polygon fill="black" stroke="black" points="103.66,-30.75 93.84,-34.73 104,-37.74 103.66,-30.75"/>
<text text-anchor="middle" x="117.6" y="-39.8" font-family="Times,serif" font-size="14.00">1</text>
</g>
<!-- C -->
<g id="node4" class="node">
<title>C</title>
<ellipse fill="none" stroke="black" cx="262.6" cy="-22" rx="18" ry="18"/>
<ellipse fill="none" stroke="black" cx="262.6" cy="-22" rx="22" ry="22"/>
<text text-anchor="middle" x="262.6" y="-18.3" font-family="Times,serif" font-size="14.00">C</text>
</g>
<!-- B&#45;&gt;C -->
<g id="edge4" class="edge">
<title>B&#45;&gt;C</title>
<path fill="none" stroke="black" d="M191.59,-48.35C203.85,-43.73 219.06,-38.01 232.18,-33.07"/>
<polygon fill="black" stroke="black" points="233.59,-36.28 241.71,-29.48 231.12,-29.73 233.59,-36.28"/>
<text text-anchor="middle" x="217.6" y="-42.8" font-family="Times,serif" font-size="14.00">0</text>
</g>
<!-- C&#45;&gt;A -->
<g id="edge7" class="edge">
<title>C&#45;&gt;A</title>
<path fill="none" stroke="black" d="M240.91,-18.08C216.7,-14.12 175.49,-9.34 140.6,-15 127.05,-17.2 112.61,-21.58 100.25,-26.01"/>
<polygon fill="black" stroke="black" points="98.97,-22.75 90.83,-29.52 101.42,-29.3 98.97,-22.75"/>
<text text-anchor="middle" x="167.6" y="-18.8" font-family="Times,serif" font-size="14.00">1</text>
</g>
<!-- C&#45;&gt;C -->
<g id="edge6" class="edge">
<title>C&#45;&gt;C</title>
<path fill="none" stroke="black" d="M254.59,-42.58C253.49,-52.84 256.15,-62 262.6,-62 266.73,-62 269.31,-58.24 270.34,-52.84"/>
<polygon fill="black" stroke="black" points="273.84,-52.67 270.61,-42.58 266.85,-52.49 273.84,-52.67"/>
<text text-anchor="middle" x="262.6" y="-65.8" font-family="Times,serif" font-size="14.00">0</text>
</g>
</g>
</svg>
