<?xml version="1.0" encoding="UTF-8" standalone="no"?>
<!DOCTYPE svg PUBLIC "-//W3C//DTD SVG 1.1//EN"
 "http://www.w3.org/Graphics/SVG/1.1/DTD/svg11.dtd">
<!-- Generated by graphviz version 2.43.0 (0)
 -->
<!-- Title: %3 Pages: 1 -->
<svg width="483pt" height="151pt"
 viewBox="0.00 0.00 482.60 151.00" xmlns="http://www.w3.org/2000/svg" xmlns:xlink="http://www.w3.org/1999/xlink">
<g id="graph0" class="graph" transform="scale(1 1) rotate(0) translate(4 147)">
<title>%3</title>
<polygon fill="white" stroke="transparent" points="-4,4 -4,-147 478.6,-147 478.6,4 -4,4"/>
<!-- ini -->
<g id="node1" class="node">
<title>ini</title>
<ellipse fill="black" stroke="black" cx="1.8" cy="-77" rx="1.8" ry="1.8"/>
</g>
<!-- A -->
<g id="node2" class="node">
<title>A</title>
<ellipse fill="none" stroke="black" cx="67.6" cy="-77" rx="27" ry="18"/>
<text text-anchor="middle" x="67.6" y="-73.3" font-family="Times,serif" font-size="14.00">A</text>
</g>
<!-- ini&#45;&gt;A -->
<g id="edge1" class="edge">
<title>ini&#45;&gt;A</title>
<path fill="none" stroke="black" d="M3.91,-77C7.37,-77 18.49,-77 30.42,-77"/>
<polygon fill="black" stroke="black" points="30.48,-80.5 40.48,-77 30.48,-73.5 30.48,-80.5"/>
</g>
<!-- A&#45;&gt;A -->
<g id="edge3" class="edge">
<title>A&#45;&gt;A</title>
<path fill="none" stroke="black" d="M59.74,-94.41C58.28,-104.09 60.9,-113 67.6,-113 71.79,-113 74.38,-109.52 75.38,-104.54"/>
<polygon fill="black" stroke="black" points="78.88,-104.44 75.46,-94.41 71.88,-104.38 78.88,-104.44"/>
<text text-anchor="middle" x="67.6" y="-116.8" font-family="Times,serif" font-size="14.00">1</text>
</g>
<!-- B -->
<g id="node3" class="node">
<title>B</title>
<ellipse fill="none" stroke="black" cx="167.6" cy="-53" rx="27" ry="18"/>
<text text-anchor="middle" x="167.6" y="-49.3" font-family="Times,serif" font-size="14.00">B</text>
</g>
<!-- A&#45;&gt;B -->
<g id="edge2" class="edge">
<title>A&#45;&gt;B</title>
<path fill="none" stroke="black" d="M81.98,-61.4C89.94,-53.34 100.78,-44.31 112.6,-40 120.03,-37.29 128.25,-37.65 135.98,-39.4"/>
<polygon fill="black" stroke="black" points="135.18,-42.81 145.76,-42.34 137.2,-36.11 135.18,-42.81"/>
<text text-anchor="middle" x="117.6" y="-43.8" font-family="Times,serif" font-size="14.00">0</text>
</g>
<!-- B&#45;&gt;A -->
<g id="edge5" class="edge">
<title>B&#45;&gt;A</title>
<path fill="none" stroke="black" d="M142.1,-59C130.28,-61.89 115.91,-65.41 103.02,-68.57"/>
<polygon fill="black" stroke="black" points="101.96,-65.23 93.08,-71.01 103.62,-72.03 101.96,-65.23"/>
<text text-anchor="middle" x="117.6" y="-68.8" font-family="Times,serif" font-size="14.00">1</text>
</g>
<!-- C -->
<g id="node4" class="node">
<title>C</title>
<ellipse fill="none" stroke="black" cx="262.6" cy="-89" rx="18" ry="18"/>
<ellipse fill="none" stroke="black" cx="262.6" cy="-89" rx="22" ry="22"/>
<text text-anchor="middle" x="262.6" y="-85.3" font-family="Times,serif" font-size="14.00">C</text>
</g>
<!-- B&#45;&gt;C -->
<g id="edge4" class="edge">
<title>B&#45;&gt;C</title>
<path fill="none" stroke="black" d="M191.59,-61.9C203.85,-66.64 219.06,-72.53 232.18,-77.61"/>
<polygon fill="black" stroke="black" points="231.12,-80.96 241.71,-81.3 233.65,-74.43 231.12,-80.96"/>
<text text-anchor="middle" x="217.6" y="-76.8" font-family="Times,serif" font-size="14.00">0</text>
</g>
<!-- C&#45;&gt;A -->
<g id="edge7" class="edge">
<title>C&#45;&gt;A</title>
<path fill="none" stroke="black" d="M240.57,-90.92C234.75,-91.36 228.44,-91.78 222.6,-92 181.72,-93.57 134.98,-87.96 103.82,-83.16"/>
<polygon fill="black" stroke="black" points="104.31,-79.7 93.88,-81.58 103.2,-86.61 104.31,-79.7"/>
<text text-anchor="middle" x="167.6" y="-95.8" font-family="Times,serif" font-size="14.00">1</text>
</g>
<!-- D -->
<g id="node6" class="node">
<title>D</title>
<ellipse fill="none" stroke="black" cx="357.6" cy="-89" rx="27" ry="18"/>
<text text-anchor="middle" x="357.6" y="-85.3" font-family="Times,serif" font-size="14.00">D</text>
</g>
<!-- C&#45;&gt;D -->
<g id="edge6" class="edge">
<title>C&#45;&gt;D</title>
<path fill="none" stroke="black" d="M284.7,-89C295.23,-89 308.27,-89 320.33,-89"/>
<polygon fill="black" stroke="black" points="320.6,-92.5 330.6,-89 320.6,-85.5 320.6,-92.5"/>
<text text-anchor="middle" x="307.6" y="-92.8" font-family="Times,serif" font-size="14.00">0</text>
</g>
<!-- E -->
<g id="node5" class="node">
<title>E</title>
<ellipse fill="none" stroke="black" cx="452.6" cy="-22" rx="18" ry="18"/>
<ellipse fill="none" stroke="black" cx="452.6" cy="-22" rx="22" ry="22"/>
<text text-anchor="middle" x="452.6" y="-18.3" font-family="Times,serif" font-size="14.00">E</text>
</g>
<!-- E&#45;&gt;A -->
<g id="edge11" class="edge">
<title>E&#45;&gt;A</title>
<path fill="none" stroke="black" d="M431.09,-16.4C412.36,-11.79 383.83,-6 358.6,-6 166.6,-6 166.6,-6 166.6,-6 133.77,-6 104.51,-32.45 86.69,-53.06"/>
<polygon fill="black" stroke="black" points="83.89,-50.95 80.21,-60.89 89.28,-55.41 83.89,-50.95"/>
<text text-anchor="middle" x="262.6" y="-9.8" font-family="Times,serif" font-size="14.00">1</text>
</g>
<!-- E&#45;&gt;E -->
<g id="edge10" class="edge">
<title>E&#45;&gt;E</title>
<path fill="none" stroke="black" d="M444.59,-42.58C443.49,-52.84 446.15,-62 452.6,-62 456.73,-62 459.31,-58.24 460.34,-52.84"/>
<polygon fill="black" stroke="black" points="463.84,-52.67 460.61,-42.58 456.85,-52.49 463.84,-52.67"/>
<text text-anchor="middle" x="452.6" y="-65.8" font-family="Times,serif" font-size="14.00">0</text>
</g>
<!-- D&#45;&gt;A -->
<g id="edge9" class="edge">
<title>D&#45;&gt;A</title>
<path fill="none" stroke="black" d="M336.54,-100.28C322.48,-107.51 303,-116.22 284.6,-120 209.16,-135.48 182.46,-131.4 112.6,-99 108.09,-96.91 103.36,-94.63 98.74,-92.36"/>
<polygon fill="black" stroke="black" points="100.03,-89.09 89.52,-87.77 96.91,-95.36 100.03,-89.09"/>
<text text-anchor="middle" x="217.6" y="-131.8" font-family="Times,serif" font-size="14.00">1</text>
</g>
<!-- D&#45;&gt;E -->
<g id="edge8" class="edge">
<title>D&#45;&gt;E</title>
<path fill="none" stroke="black" d="M376.53,-76.08C390.6,-65.94 410.38,-51.7 426.1,-40.37"/>
<polygon fill="black" stroke="black" points="428.28,-43.11 434.35,-34.43 424.19,-37.43 428.28,-43.11"/>
<text text-anchor="middle" x="407.6" y="-58.8" font-family="Times,serif" font-size="14.00">0</text>
</g>
</g>
</svg>
